<svg data-v-423bf9ae="" xmlns="http://www.w3.org/2000/svg" viewBox="0 0 118.67203628184052 60" class="font"><!----><!----><defs data-v-423bf9ae=""><linearGradient data-v-423bf9ae="" gradientTransform="rotate(25)" id="b05269c7-49ae-4d10-897c-e801ac08fe51" x1="0%" y1="0%" x2="100%" y2="0%"><stop data-v-423bf9ae="" offset="0%" style="stop-color: rgb(73, 36, 126); stop-opacity: 1;"></stop><stop data-v-423bf9ae="" offset="100%" style="stop-color: rgb(170, 73, 199); stop-opacity: 1;"></stop></linearGradient></defs><g data-v-423bf9ae="" id="8a39217d-38f4-4b19-8cb0-1d1248655933" fill="url(#b05269c7-49ae-4d10-897c-e801ac08fe51)" transform="matrix(6.036217558641619,0,0,6.036217558641619,-6.338029873114991,-30.241450873537914)"><path d="M1.19 9.91L2.81 10.85L6.02 10.85L6.02 13.27L3.01 13.27L3.01 12.15L1.05 12.15L1.05 14.01L2.67 14.95L6.36 14.95L7.98 14.01L7.98 9.97L6.36 9.03L3.15 9.03L3.15 6.69L6.02 6.69L6.02 7.81L7.98 7.81L7.98 5.95L6.36 5.01L2.81 5.01L1.19 5.95ZM12.32 10.68L15.53 10.68L15.53 9.00L12.32 9.00L12.32 6.76L16.37 6.76L16.37 5.08L10.36 5.08L10.36 14.88L12.32 14.88ZM18.05 14.88L20.71 14.88L20.71 12.22L18.05 12.22Z"></path></g><!----><!----></svg>